<?xml version="1.0" encoding="utf-8"?>
<!-- Generator: Adobe Illustrator 19.0.1, SVG Export Plug-In . SVG Version: 6.00 Build 0)  -->
<svg version="1.1" id="Layer_1" xmlns="http://www.w3.org/2000/svg" xmlns:xlink="http://www.w3.org/1999/xlink" x="0px" y="0px"
	 viewBox="0 0 1728 864" style="enable-background:new 0 0 1728 864;" xml:space="preserve">
<style type="text/css">
	.st0{fill:none;stroke:#B51F24;stroke-width:1.000000e-03;stroke-miterlimit:10;}
	.st1{fill:none;stroke:#6ABD45;stroke-width:1.000000e-03;}
	.st2{fill:none;stroke:#000000;stroke-width:1.000000e-03;stroke-miterlimit:10;}
</style>
<ellipse class="st0" cx="186.3" cy="437.3" rx="4.5" ry="4.3"/>
<ellipse class="st0" cx="186.3" cy="550.4" rx="4.5" ry="4.3"/>
<ellipse class="st0" cx="254.8" cy="493.9" rx="4.5" ry="4.3"/>
<ellipse class="st0" cx="463.7" cy="493.9" rx="4.5" ry="4.3"/>
<ellipse class="st0" cx="497.4" cy="550.4" rx="4.5" ry="4.3"/>
<ellipse class="st0" cx="497.4" cy="437.3" rx="4.5" ry="4.3"/>
<circle class="st0" cx="357.7" cy="51.3" r="7.2"/>
<circle class="st0" cx="326.7" cy="51.3" r="7.2"/>
<g>
	<line class="st0" x1="14.4" y1="391.3" x2="39.6" y2="366.1"/>
	<line class="st0" x1="161.8" y1="391.3" x2="136.6" y2="366.1"/>
	<line class="st0" x1="39.6" y1="366.1" x2="136.6" y2="366.1"/>
</g>
<line class="st0" x1="166.3" y1="32.4" x2="191.5" y2="7.2"/>
<line class="st0" x1="516.9" y1="32.4" x2="491.7" y2="7.2"/>
<line class="st0" x1="191.5" y1="7.2" x2="491.7" y2="7.2"/>
<g>
	<line class="st0" x1="161.8" y1="598.3" x2="136.6" y2="623.5"/>
	<line class="st0" x1="14.4" y1="598.3" x2="39.6" y2="623.5"/>
	<line class="st0" x1="136.6" y1="623.5" x2="39.6" y2="623.5"/>
</g>
<line class="st0" x1="521.9" y1="391.3" x2="547.1" y2="366.1"/>
<line class="st0" x1="669.3" y1="391.3" x2="644.1" y2="366.1"/>
<line class="st0" x1="547.1" y1="366.1" x2="644.1" y2="366.1"/>
<g>
	<line class="st0" x1="669.3" y1="598.3" x2="644.1" y2="623.5"/>
	<line class="st0" x1="521.9" y1="598.3" x2="547.1" y2="623.5"/>
	<line class="st0" x1="644.1" y1="623.5" x2="547.1" y2="623.5"/>
</g>
<line class="st0" x1="161.8" y1="32.4" x2="161.8" y2="391.3"/>
<line class="st0" x1="521.9" y1="32.4" x2="521.9" y2="391.3"/>
<line class="st0" x1="669.3" y1="391.3" x2="669.3" y2="598.3"/>
<line class="st0" x1="14.4" y1="391.3" x2="14.4" y2="598.3"/>
<line class="st0" x1="161.8" y1="598.3" x2="161.8" y2="750.2"/>
<line class="st0" x1="161.8" y1="750.2" x2="521.9" y2="750.2"/>
<line class="st0" x1="521.9" y1="750.2" x2="521.9" y2="598.3"/>
<line class="st0" x1="516.9" y1="32.4" x2="521.9" y2="32.4"/>
<line class="st0" x1="161.8" y1="32.4" x2="166.3" y2="32.4"/>
<ellipse class="st0" cx="341.8" cy="17.9" rx="4.5" ry="4.3"/>
<ellipse class="st0" cx="345.8" cy="735.7" rx="4.5" ry="4.3"/>
<rect x="161.8" y="386.8" class="st1" width="360.1" height="216"/>
<line class="st1" x1="166.3" y1="32.4" x2="516.9" y2="32.4"/>
<line class="st1" x1="161.8" y1="239.4" x2="521.8" y2="239.4"/>
<line class="st1" x1="14.4" y1="391.3" x2="161.8" y2="391.3"/>
<line class="st1" x1="14.4" y1="598.3" x2="161.8" y2="598.3"/>
<line class="st1" x1="669.3" y1="598.3" x2="521.9" y2="598.3"/>
<line class="st1" x1="669.3" y1="391.3" x2="521.9" y2="391.3"/>
<g>
	<path class="st2" d="M501.9,564.8H181.8c-5.4,0-9.9-4.4-9.9-9.9V432.8c0-5.4,4.4-9.9,9.9-9.9h320.1c5.4,0,9.9,4.4,9.9,9.9v122.1
		C511.8,560.4,507.3,564.8,501.9,564.8z"/>
	<circle class="st2" cx="186.3" cy="550.4" r="7.2"/>
	<circle class="st2" cx="497.4" cy="550.4" r="7.2"/>
	<circle class="st2" cx="497.4" cy="437.3" r="7.2"/>
	<circle class="st2" cx="186.3" cy="437.3" r="7.2"/>
	<rect x="196.6" y="430.1" class="st2" width="171.1" height="127.4"/>
</g>
<g>
	<path class="st2" d="M474,432.3v123.1c0,5.9-4.8,10.7-10.7,10.7H255.1c-5.9,0-10.7-4.8-10.7-10.7V432.3c0-5.9,4.8-10.7,10.7-10.7
		h208.2C469.2,421.6,474,426.4,474,432.3z"/>
	<circle class="st2" cx="254.8" cy="493.9" r="7.2"/>
	<circle class="st2" cx="463.7" cy="493.9" r="7.2"/>
</g>
</svg>
