<?xml version="1.0" encoding="utf-8"?>
<!-- Generator: Adobe Illustrator 19.0.1, SVG Export Plug-In . SVG Version: 6.00 Build 0)  -->
<svg version="1.1" xmlns="http://www.w3.org/2000/svg" xmlns:xlink="http://www.w3.org/1999/xlink" x="0px" y="0px"
	 viewBox="0 0 1728 864" style="enable-background:new 0 0 1728 864;" xml:space="preserve">
<style type="text/css">
	.Arched_x0020_Green{fill:url(#SVGID_1_);stroke:#FFFFFF;stroke-width:0.25;stroke-miterlimit:1;}
	.st0{fill:none;stroke:#B51F24;stroke-width:0.1;stroke-miterlimit:10;}
	.st1{fill:none;stroke:#6ABD45;stroke-width:0.1;}
</style>
<linearGradient id="SVGID_1_" gradientUnits="userSpaceOnUse" x1="558.373" y1="823.5356" x2="559.0801" y2="822.8285">
	<stop  offset="0" style="stop-color:#20AC4B"/>
	<stop  offset="0.9831" style="stop-color:#19361A"/>
</linearGradient>
<g id="Layer_1">
	<circle class="st0" cx="245.2" cy="131.4" r="11.7"/>
	<circle class="st0" cx="364" cy="101.4" r="4.3"/>
	<circle class="st0" cx="325.2" cy="101.4" r="4.3"/>
	<circle class="st0" cx="245.2" cy="101.9" r="4.3"/>
	<ellipse class="st0" cx="173.4" cy="401.2" rx="4.5" ry="4.3"/>
	<ellipse class="st0" cx="173.4" cy="585.3" rx="4.5" ry="4.3"/>
	<ellipse class="st0" cx="404" cy="585.3" rx="4.5" ry="4.3"/>
	<ellipse class="st0" cx="404" cy="402.8" rx="4.5" ry="4.3"/>
	<circle class="st0" cx="309.5" cy="131.4" r="7.2"/>
	<ellipse class="st0" cx="344.6" cy="131.4" rx="9.9" ry="9.9"/>
	<g>
		<line class="st0" x1="4.4" y1="391.3" x2="29.6" y2="366.1"/>
		<line class="st0" x1="151.8" y1="391.3" x2="126.6" y2="366.1"/>
		<line class="st0" x1="29.6" y1="366.1" x2="126.6" y2="366.1"/>
	</g>
	<line class="st0" x1="156.3" y1="32.4" x2="181.5" y2="7.2"/>
	<line class="st0" x1="434.8" y1="32.4" x2="409.6" y2="7.2"/>
	<line class="st0" x1="181.5" y1="7.2" x2="409.6" y2="7.2"/>
	<g>
		<line class="st0" x1="151.8" y1="598.3" x2="126.6" y2="623.5"/>
		<line class="st0" x1="4.4" y1="598.3" x2="29.6" y2="623.5"/>
		<line class="st0" x1="126.6" y1="623.5" x2="29.6" y2="623.5"/>
	</g>
	<line class="st0" x1="439.8" y1="391.3" x2="465" y2="366.1"/>
	<line class="st0" x1="587.2" y1="391.3" x2="562" y2="366.1"/>
	<line class="st0" x1="465" y1="366.1" x2="562" y2="366.1"/>
	<g>
		<line class="st0" x1="587.2" y1="598.3" x2="562" y2="623.5"/>
		<line class="st0" x1="439.8" y1="598.3" x2="465" y2="623.5"/>
		<line class="st0" x1="562" y1="623.5" x2="465" y2="623.5"/>
	</g>
	<line class="st0" x1="151.8" y1="32.4" x2="151.8" y2="391.3"/>
	<line class="st0" x1="439.8" y1="32.4" x2="439.8" y2="391.3"/>
	<line class="st0" x1="587.2" y1="391.3" x2="587.2" y2="598.3"/>
	<line class="st0" x1="4.4" y1="391.3" x2="4.4" y2="598.3"/>
	<line class="st0" x1="151.8" y1="598.3" x2="151.8" y2="750.2"/>
	<line class="st0" x1="151.8" y1="750.2" x2="439.8" y2="750.2"/>
	<line class="st0" x1="439.8" y1="750.2" x2="439.8" y2="598.3"/>
	<line class="st0" x1="434.8" y1="32.4" x2="439.8" y2="32.4"/>
	<line class="st0" x1="151.8" y1="32.4" x2="156.3" y2="32.4"/>
	<ellipse class="st0" cx="295.5" cy="17.9" rx="4.5" ry="4.3"/>
	<ellipse class="st0" cx="294.4" cy="735.7" rx="4.5" ry="4.3"/>
</g>
<g id="cut_lines">
	<rect x="151.8" y="386.8" class="st1" width="288" height="216"/>
	<line class="st1" x1="156.3" y1="32.4" x2="434.8" y2="32.4"/>
	<line class="st1" x1="151.8" y1="239.4" x2="439.8" y2="239.4"/>
	<line class="st1" x1="4.4" y1="391.3" x2="151.8" y2="391.3"/>
	<line class="st1" x1="4.4" y1="598.3" x2="151.8" y2="598.3"/>
	<line class="st1" x1="587.2" y1="598.3" x2="439.8" y2="598.3"/>
	<line class="st1" x1="587.2" y1="391.3" x2="439.8" y2="391.3"/>
</g>
</svg>
